<svg width="8" height="16" viewBox="0 0 8 16" fill="none" xmlns="http://www.w3.org/2000/svg">
<path d="M0.353027 0.997254V8.35863C0.353027 8.8085 0.721096 9.17656 1.17096 9.17656H2.80682V15.0248C2.80682 15.4419 3.35483 15.5891 3.5675 15.2293L7.81256 7.94967C7.88547 7.8259 7.92431 7.68504 7.92516 7.54139C7.926 7.39775 7.88881 7.25644 7.81736 7.13182C7.74591 7.0072 7.64276 6.90371 7.51837 6.83187C7.39398 6.76002 7.25278 6.72238 7.10914 6.72277H5.26061L7.29726 1.28353C7.34454 1.16027 7.3611 1.02734 7.3455 0.89625C7.32989 0.765155 7.2826 0.639832 7.2077 0.531112C7.13281 0.422393 7.03256 0.333547 6.91563 0.272254C6.7987 0.210961 6.66861 0.179065 6.53659 0.179323H1.17096C0.721096 0.179323 0.353027 0.547392 0.353027 0.997254Z" fill="white"/>
</svg>
