<svg width="24" height="25" viewBox="0 0 24 25" fill="none" xmlns="http://www.w3.org/2000/svg">
<path d="M6.13575 3.2625C5.40843 3.26177 4.70679 3.53137 4.16703 4.01896C3.62727 4.50655 3.2879 5.17734 3.21481 5.90112C3.14171 6.6249 3.34011 7.35003 3.77147 7.93573C4.20284 8.52144 4.83641 8.92593 5.54918 9.0707V14.4095C5.54918 15.4987 5.98177 16.5433 6.75179 17.3135C7.52181 18.0837 8.56618 18.5163 9.65515 18.5163H11.7586L10.413 19.861L11.2436 20.6918L14.004 17.9297L11.2436 15.1675L10.413 15.9983L11.7586 17.343H9.65515C8.87732 17.343 8.13134 17.0339 7.58132 16.4838C7.03131 15.9337 6.72231 15.1875 6.72231 14.4095V9.0707C7.43508 8.92593 8.06865 8.52144 8.50002 7.93573C8.93138 7.35003 9.12978 6.6249 9.05668 5.90112C8.98359 5.17734 8.64422 4.50655 8.10446 4.01896C7.5647 3.53137 6.86306 3.26177 6.13575 3.2625ZM13.5898 4.26456L12.7593 3.43381L9.99888 6.19593L12.7593 8.95805L13.5898 8.1273L12.2443 6.78262H14.3477C14.7328 6.78262 15.1142 6.85849 15.47 7.00591C15.8259 7.15333 16.1492 7.36941 16.4215 7.6418C16.6939 7.91419 16.9099 8.23757 17.0573 8.59347C17.2047 8.94938 17.2805 9.33083 17.2805 9.71605V15.0549C16.5684 15.2003 15.9356 15.605 15.5049 16.1905C15.0741 16.776 14.8761 17.5006 14.9491 18.2239C15.0222 18.9472 15.3611 19.6175 15.9003 20.1051C16.4394 20.5926 17.1403 20.8625 17.8671 20.8625C18.5939 20.8625 19.2948 20.5926 19.834 20.1051C20.3731 19.6175 20.712 18.9472 20.7851 18.2239C20.8581 17.5006 20.6601 16.776 20.2293 16.1905C19.7986 15.605 19.1658 15.2003 18.4537 15.0549V9.71605C18.4537 8.62686 18.0211 7.58228 17.2511 6.8121C16.481 6.04192 15.4367 5.60924 14.3477 5.60924H12.2443L13.5898 4.26456Z" fill="#B9B9B9"/>
</svg>
