<svg width="24" height="25" viewBox="0 0 24 25" fill="none" xmlns="http://www.w3.org/2000/svg">
<path d="M12 21.125C11.872 21.1263 11.7459 21.094 11.6344 21.0313C11.2313 20.8063 1.875 15.4906 1.875 8.75C1.875 7.56941 2.24646 6.41875 2.93676 5.461C3.62707 4.50326 4.60121 3.78699 5.72122 3.41366C6.84122 3.04032 8.0503 3.02885 9.17719 3.38086C10.3041 3.73287 11.2916 4.43053 12 5.375C12.7084 4.43053 13.6959 3.73287 14.8228 3.38086C15.9497 3.02885 17.1588 3.04032 18.2788 3.41366C19.3988 3.78699 20.3729 4.50326 21.0632 5.461C21.7535 6.41875 22.125 7.56941 22.125 8.75C22.125 11.6188 20.4656 14.5625 17.1938 17.5063C15.708 18.8419 14.0903 20.023 12.3656 21.0313C12.2541 21.094 12.128 21.1263 12 21.125ZM7.5 4.625C6.40598 4.625 5.35677 5.0596 4.58318 5.83318C3.8096 6.60677 3.375 7.65598 3.375 8.75C3.375 13.925 10.3125 18.4719 12 19.5031C13.6875 18.4719 20.625 13.925 20.625 8.75C20.6259 7.7964 20.2963 6.87195 19.6924 6.13394C19.0885 5.39593 18.2476 4.88995 17.3127 4.70208C16.3777 4.51422 15.4066 4.65607 14.5645 5.10351C13.7224 5.55095 13.0613 6.27634 12.6938 7.15625C12.6372 7.29381 12.5411 7.41146 12.4176 7.49426C12.2941 7.57707 12.1487 7.62128 12 7.62128C11.8513 7.62128 11.7059 7.57707 11.5824 7.49426C11.4589 7.41146 11.3628 7.29381 11.3063 7.15625C10.9941 6.40462 10.4656 5.76272 9.78791 5.31203C9.11021 4.86135 8.31387 4.62221 7.5 4.625Z" fill="#B9B9B9"/>
</svg>
