<svg width="122" height="122" viewBox="0 0 122 122" fill="none" xmlns="http://www.w3.org/2000/svg">
<path d="M56.756 4.60698C59.0415 2.12604 62.9585 2.12604 65.244 4.60698L71.1858 11.057C72.6977 12.6982 75.0204 13.3206 77.1503 12.6552L85.5211 10.0402C88.7409 9.0344 92.1331 10.9929 92.8719 14.2842L94.7926 22.841C95.2814 25.0183 96.9817 26.7186 99.159 27.2074L107.716 29.1281C111.007 29.8669 112.966 33.2591 111.96 36.4789L109.345 44.8497C108.679 46.9796 109.302 49.3023 110.943 50.8142L117.393 56.756C119.874 59.0415 119.874 62.9585 117.393 65.244L110.943 71.1858C109.302 72.6977 108.679 75.0204 109.345 77.1503L111.96 85.5211C112.966 88.7409 111.007 92.1331 107.716 92.8719L99.159 94.7926C96.9817 95.2814 95.2814 96.9817 94.7926 99.159L92.8719 107.716C92.1331 111.007 88.7409 112.966 85.5211 111.96L77.1503 109.345C75.0204 108.679 72.6977 109.302 71.1858 110.943L65.244 117.393C62.9585 119.874 59.0415 119.874 56.756 117.393L50.8142 110.943C49.3023 109.302 46.9796 108.679 44.8496 109.345L36.4789 111.96C33.2591 112.966 29.8669 111.007 29.1281 107.716L27.2074 99.159C26.7186 96.9817 25.0183 95.2814 22.841 94.7926L14.2842 92.8719C10.9929 92.1331 9.0344 88.7409 10.0402 85.5211L12.6552 77.1503C13.3206 75.0204 12.6982 72.6977 11.057 71.1858L4.60698 65.244C2.12604 62.9585 2.12604 59.0415 4.60698 56.756L11.057 50.8142C12.6982 49.3023 13.3206 46.9796 12.6552 44.8496L10.0402 36.4789C9.0344 33.2591 10.9929 29.8669 14.2842 29.1281L22.841 27.2074C25.0183 26.7186 26.7186 25.0183 27.2074 22.841L29.1281 14.2842C29.8669 10.9929 33.2591 9.0344 36.4789 10.0402L44.8497 12.6552C46.9796 13.3206 49.3023 12.6982 50.8142 11.057L56.756 4.60698Z" fill="#1455AC"/>
<path d="M91.0955 56.7178L38.597 61.3108C37.5319 61.404 36.5944 60.6173 36.5012 59.5522L35.3094 45.9292C35.2162 44.8641 36.0029 43.9266 37.0679 43.8334L94.7371 38.788C96.0855 38.67 97.1361 39.9389 96.7681 41.2408L92.7913 55.3159C92.5715 56.0905 91.8973 56.6476 91.0955 56.7178Z" fill="#F8F8F8"/>
<g filter="url(#filter0_d_2_170)">
<path d="M90.6935 56.7529L38.195 61.3459C37.13 61.4391 36.1924 60.6524 36.0992 59.5874L34.9074 45.9644C34.8142 44.8993 35.6009 43.9617 36.666 43.8686L94.3351 38.8232C95.6835 38.7052 96.7341 39.9741 96.3661 41.2759L92.3893 55.3511C92.1695 56.1256 91.4953 56.6828 90.6935 56.7529Z" fill="white"/>
</g>
<path d="M85.5656 76.8337L31.1399 81.5953L38.4022 64.3835C38.6806 63.7233 39.3011 63.2701 40.0165 63.2075L89.2072 58.9039C90.5556 58.7859 91.6062 60.0548 91.2382 61.3567L87.2614 75.4319C87.0416 76.2064 86.3674 76.7635 85.5656 76.8337Z" fill="#F8F8F8"/>
<g filter="url(#filter1_d_2_170)">
<path d="M85.1636 76.8688L30.7379 81.6305L38.0002 64.4187C38.2786 63.7585 38.8991 63.3053 39.6145 63.2427L88.8052 58.9391C90.1536 58.8211 91.2042 60.09 90.8362 61.3918L86.8594 75.467C86.6396 76.2416 85.9654 76.7987 85.1636 76.8688Z" fill="white"/>
</g>
<path d="M34.3528 35.9588L25.1385 65.9245L32.3007 65.2979L24.2914 92.5581L48.675 51.1607L40.063 52.8294L50.0415 32.1319L34.3528 35.9588Z" fill="#E6E6E6"/>
<path d="M33.6971 35.4087L24.4828 65.3744L31.645 64.7478L23.6358 92.008L48.0193 50.6106L39.4073 52.2793L49.3859 31.5819L33.6971 35.4087Z" fill="#FEFE01"/>
<path d="M42.3653 33.2936L31.899 58.8552L38.8304 57.7669L23.6358 92.008L48.0193 50.6106L39.4073 52.2793L49.3859 31.5819L42.3653 33.2936Z" fill="#FDB603"/>
<g filter="url(#filter2_d_2_170)">
<path d="M53.6859 47.8145L53.3873 50.2732L56.156 50.031L55.9744 51.3807L53.2233 51.6214L52.8017 55.0839L51.0983 55.2329L52.1465 46.6154L57.1454 46.178L56.9756 47.5267L53.6859 47.8145ZM62.1644 52.884L61.9946 54.2796L57.3177 54.6888L58.3658 46.0713L60.0575 45.9233L59.1792 53.1451L62.1644 52.884ZM67.577 50.5654L67.0737 47.9124C67.0464 47.7738 67.0152 47.61 66.9801 47.4212C66.945 47.2323 66.9118 47.0276 66.8806 46.807C66.7948 47.0378 66.7108 47.2528 66.6289 47.4519C66.5469 47.651 66.4747 47.8258 66.4123 47.9762L65.259 50.7682L67.577 50.5654ZM69.93 53.5854L68.6188 53.7001C68.4705 53.7131 68.3554 53.6879 68.2734 53.6245C68.1915 53.5612 68.1349 53.4741 68.1037 53.3632L67.7935 51.7275L64.7556 51.9933L64.0414 53.7186C63.9906 53.8249 63.9126 53.9218 63.8072 54.0094C63.7019 54.0931 63.5809 54.1409 63.4443 54.1528L62.1097 54.2696L66.1958 45.3862L67.9285 45.2346L69.93 53.5854ZM75.7479 46.1664C75.6855 46.2541 75.625 46.3221 75.5665 46.3703C75.5079 46.4146 75.4357 46.4405 75.3499 46.448C75.2679 46.4552 75.184 46.4331 75.0982 46.3819C75.0124 46.3267 74.9128 46.2669 74.7997 46.2023C74.6865 46.1378 74.5558 46.0826 74.4075 46.0369C74.2592 45.9872 74.0797 45.9715 73.869 45.99C73.67 46.0074 73.4944 46.0521 73.3422 46.1242C73.1939 46.192 73.069 46.2813 72.9675 46.392C72.8661 46.5027 72.79 46.6289 72.7392 46.7704C72.6885 46.9119 72.6631 47.0611 72.6631 47.2178C72.6631 47.3862 72.708 47.5233 72.7977 47.629C72.8875 47.7348 73.0045 47.8244 73.1489 47.898C73.2972 47.9712 73.465 48.0348 73.6523 48.089C73.8435 48.1388 74.0367 48.1944 74.2318 48.2557C74.4269 48.317 74.6181 48.3903 74.8054 48.4758C74.9966 48.5609 75.1644 48.6735 75.3088 48.8137C75.4571 48.9496 75.5761 49.1193 75.6659 49.323C75.7556 49.5267 75.8005 49.7793 75.8005 50.081C75.8004 50.5001 75.7263 50.9042 75.578 51.2932C75.4336 51.678 75.2248 52.0234 74.9516 52.3293C74.6823 52.631 74.3545 52.881 73.9682 53.0793C73.5818 53.2776 73.1467 53.398 72.6628 53.4403C72.417 53.4618 72.1711 53.4559 71.9253 53.4226C71.6834 53.3889 71.4531 53.3326 71.2346 53.2538C71.0161 53.175 70.8132 53.0753 70.6258 52.9545C70.4385 52.8338 70.2786 52.6951 70.1459 52.5382L70.7488 51.6805C70.7957 51.6215 70.8542 51.5694 70.9244 51.5241C70.9986 51.4745 71.0727 51.4465 71.1469 51.44C71.2483 51.4311 71.3478 51.4635 71.4454 51.5373C71.5469 51.6067 71.66 51.683 71.7849 51.7661C71.9137 51.8489 72.0639 51.9238 72.2356 51.9911C72.4112 52.0541 72.6258 52.0745 72.8795 52.0523C73.2814 52.0171 73.5936 51.8782 73.8161 51.6354C74.0424 51.3884 74.1556 51.0573 74.1556 50.6421C74.1556 50.454 74.1107 50.3052 74.021 50.1955C73.9312 50.0819 73.8142 49.9903 73.6698 49.9207C73.5254 49.8511 73.3596 49.7931 73.1723 49.7468C72.9888 49.7002 72.7996 49.6502 72.6045 49.5967C72.4094 49.5394 72.2181 49.4719 72.0308 49.3942C71.8474 49.3124 71.6835 49.2014 71.5392 49.0612C71.3948 48.9211 71.2777 48.7452 71.188 48.5337C71.0982 48.3183 71.0534 48.048 71.0534 47.7229C71.0534 47.3507 71.1217 46.9883 71.2583 46.6356C71.3988 46.2785 71.5978 45.9575 71.8554 45.6726C72.113 45.3837 72.4252 45.1448 72.792 44.956C73.1588 44.7672 73.5705 44.6529 74.0271 44.6129C74.2612 44.5924 74.4876 44.5981 74.7061 44.6299C74.9285 44.6614 75.1353 44.7138 75.3266 44.7872C75.5178 44.8566 75.6914 44.9452 75.8475 45.053C76.0075 45.1604 76.1441 45.2797 76.2572 45.4108L75.7479 46.1664ZM84.4762 43.7869L83.4281 52.4044L81.7189 52.554L82.1698 48.8245L78.8274 49.1169L78.3765 52.8464L76.6731 52.9954L77.7213 44.3779L79.4247 44.2288L78.9738 47.9172L82.3161 47.6248L82.767 43.9364L84.4762 43.7869Z" fill="#1455AC"/>
</g>
<g filter="url(#filter3_d_2_170)">
<path d="M58.2578 69.4148C58.2578 69.8809 58.2051 70.3301 58.0997 70.7624C57.9982 71.1904 57.8499 71.5932 57.6548 71.9706C57.4635 72.3438 57.2313 72.6854 56.9581 72.9952C56.685 73.3051 56.3767 73.5769 56.0333 73.8106C55.6937 74.0401 55.323 74.2273 54.9211 74.3721C54.523 74.5127 54.1035 74.6023 53.6626 74.6409L50.6421 74.9051L51.6903 66.2876L54.7107 66.0233C55.257 65.9755 55.7487 66.0265 56.1858 66.1763C56.6267 66.3218 56.9994 66.5458 57.3038 66.8482C57.612 67.1503 57.8481 67.5214 58.012 67.9614C58.1759 68.3976 58.2578 68.882 58.2578 69.4148ZM56.5193 69.608C56.5193 69.2398 56.4744 68.9107 56.3847 68.6209C56.2989 68.3307 56.172 68.0891 56.0042 67.8962C55.8365 67.6993 55.6296 67.5549 55.3838 67.4628C55.1419 67.3703 54.8628 67.3379 54.5468 67.3656L53.2297 67.4808L52.5153 73.4074L53.8265 73.2927C54.2363 73.2569 54.607 73.1441 54.9387 72.9545C55.2704 72.7649 55.5533 72.511 55.7875 72.1928C56.0216 71.8746 56.2012 71.4985 56.3261 71.0645C56.4548 70.6262 56.5193 70.1407 56.5193 69.608ZM61.5184 66.7615L61.2432 69.0419L63.8011 68.8181L63.6313 70.1198L61.0851 70.3426L60.7981 72.6828L64.1054 72.3934L63.9414 73.7416L58.9308 74.18L59.979 65.5624L64.9779 65.125L64.8081 66.4737L61.5184 66.7615ZM69.7732 70.0055L69.2699 67.3525C69.2426 67.2139 69.2114 67.0502 69.1763 66.8613C69.1412 66.6724 69.108 66.4677 69.0768 66.2471C68.9909 66.4779 68.907 66.6929 68.8251 66.892C68.7431 67.0911 68.6709 67.2659 68.6085 67.4163L67.4552 70.2083L69.7732 70.0055ZM72.1262 73.0255L70.815 73.1402C70.6667 73.1532 70.5516 73.128 70.4696 73.0647C70.3877 73.0013 70.3311 72.9142 70.2999 72.8034L69.9897 71.1676L66.9518 71.4334L66.2376 73.1588C66.1868 73.2651 66.1088 73.362 66.0034 73.4495C65.898 73.5332 65.7771 73.581 65.6405 73.5929L64.3059 73.7097L68.392 64.8263L70.1247 64.6748L72.1262 73.0255ZM77.7483 71.1528L77.5785 72.5485L72.9015 72.9577L73.9497 64.3401L75.6413 64.1921L74.763 71.414L77.7483 71.1528Z" fill="#1455AC"/>
</g>
<path d="M53.2648 35.2797C53.2365 35.3243 53.2084 35.3589 53.1805 35.3834C53.1523 35.406 53.1163 35.4191 53.0725 35.423C53.0307 35.4266 52.9865 35.4154 52.9401 35.3894C52.8935 35.3614 52.8396 35.3309 52.7785 35.2981C52.7174 35.2653 52.6477 35.2373 52.5694 35.214C52.4909 35.1888 52.3978 35.1809 52.2903 35.1903C52.1886 35.1992 52.1003 35.222 52.0252 35.2586C51.9519 35.2932 51.8917 35.3386 51.8444 35.3949C51.7971 35.4512 51.7636 35.5154 51.7438 35.5874C51.724 35.6594 51.7176 35.7353 51.7245 35.815C51.732 35.9006 51.7612 35.9704 51.8121 36.0241C51.863 36.0779 51.9272 36.1235 52.0048 36.1608C52.0843 36.1981 52.1735 36.2304 52.2722 36.2579C52.3728 36.2832 52.4747 36.3115 52.5778 36.3426C52.6809 36.3737 52.7825 36.411 52.8827 36.4545C52.9848 36.4977 53.0762 36.555 53.1567 36.6262C53.239 36.6953 53.3078 36.7816 53.3631 36.8852C53.4183 36.9888 53.4526 37.1173 53.4661 37.2707C53.4847 37.4839 53.4645 37.6894 53.4056 37.8873C53.3484 38.0831 53.2564 38.2587 53.1294 38.4144C53.0043 38.5679 52.8468 38.6951 52.6569 38.796C52.467 38.897 52.2485 38.9583 52.0014 38.9799C51.8759 38.9908 51.7492 38.9879 51.6212 38.971C51.4952 38.9539 51.3743 38.9253 51.2584 38.8853C51.1424 38.8452 51.0336 38.7945 50.9319 38.7331C50.8301 38.6718 50.7416 38.6012 50.6664 38.5215L50.9384 38.0851C50.9599 38.0551 50.9877 38.0286 51.0218 38.0055C51.0577 37.9803 51.0946 37.966 51.1325 37.9627C51.1843 37.9582 51.2369 37.9747 51.2904 38.0122C51.3457 38.0475 51.4073 38.0862 51.4752 38.1285C51.5452 38.1706 51.6258 38.2087 51.7171 38.2428C51.8103 38.2748 51.9216 38.2852 52.0511 38.2739C52.2563 38.2559 52.4107 38.1852 52.5144 38.0617C52.6198 37.936 52.6633 37.7676 52.6448 37.5564C52.6365 37.4607 52.6067 37.385 52.5557 37.3293C52.5045 37.2715 52.4402 37.225 52.3628 37.1896C52.2854 37.1542 52.1975 37.1247 52.0991 37.1012C52.0026 37.0775 51.903 37.0521 51.8003 37.025C51.6974 36.9958 51.596 36.9615 51.4962 36.9221C51.3982 36.8805 51.3089 36.824 51.2284 36.7528C51.1479 36.6815 51.0798 36.5921 51.0242 36.4845C50.9685 36.375 50.9334 36.2375 50.9189 36.0722C50.9023 35.8829 50.9213 35.6985 50.9759 35.5191C51.0323 35.3375 51.1204 35.1742 51.2402 35.0292C51.3599 34.8822 51.5098 34.7607 51.6902 34.6646C51.8705 34.5685 52.0772 34.5103 52.3103 34.4899C52.4298 34.4794 52.5465 34.4822 52.6604 34.4984C52.7762 34.5143 52.8849 34.541 52.9866 34.5783C53.088 34.6135 53.1813 34.6586 53.2664 34.7134C53.3535 34.768 53.4291 34.8286 53.4931 34.8953L53.2648 35.2797ZM55.4902 36.4462C55.6377 36.4333 55.7613 36.4004 55.861 36.3475C55.9628 36.2944 56.0431 36.2261 56.1021 36.1427C56.1609 36.0572 56.2005 35.9594 56.221 35.8492C56.2433 35.7368 56.2487 35.6149 56.2371 35.4834C56.2291 35.3917 56.2089 35.3092 56.1763 35.2358C56.1436 35.1603 56.0979 35.0971 56.0393 35.046C55.9826 34.9947 55.9121 34.9577 55.8278 34.935C55.7455 34.9121 55.6495 34.9054 55.54 34.915L55.0379 34.9589L54.9822 36.4906L55.4902 36.4462ZM55.5661 34.2502C55.8172 34.2282 56.035 34.2403 56.2198 34.2864C56.4043 34.3304 56.5591 34.4012 56.684 34.4987C56.811 34.596 56.9078 34.716 56.9745 34.8588C57.0432 35.0013 57.0851 35.1593 57.1003 35.3326C57.1209 35.5677 57.103 35.7881 57.0467 35.9938C56.9922 36.1973 56.8977 36.3782 56.7629 36.5366C56.63 36.6928 56.4556 36.8214 56.2396 36.9227C56.0236 37.0239 55.7652 37.0876 55.4643 37.114L54.9592 37.1581L54.9055 38.6776L54.0448 38.7529L54.1944 34.3702L55.5661 34.2502ZM58.5654 34.6714L58.5254 35.8313L59.8314 35.717L59.802 36.3791L58.5019 36.4928L58.4585 37.6832L60.1471 37.5354L60.1227 38.2212L57.5645 38.445L57.7201 34.0617L60.2723 33.8384L60.245 34.5244L58.5654 34.6714ZM62.4783 37.3345C62.5939 37.3244 62.6937 37.3066 62.7778 37.2812C62.8619 37.2558 62.9337 37.2264 62.993 37.1931C63.0543 37.1596 63.1055 37.125 63.1465 37.0893C63.1876 37.0536 63.2238 37.0203 63.2552 36.9895C63.2886 36.9584 63.3175 36.9328 63.3419 36.9126C63.3682 36.8922 63.3963 36.8808 63.4262 36.8781C63.4541 36.8757 63.4774 36.8787 63.4962 36.8871C63.517 36.8953 63.5329 36.9049 63.5439 36.916L63.8782 37.2602C63.7101 37.4957 63.5026 37.6825 63.2557 37.8206C63.0088 37.9586 62.7209 38.042 62.3922 38.0708C62.1232 38.0943 61.8789 38.0675 61.6594 37.9904C61.4418 37.913 61.254 37.797 61.0959 37.6421C60.9376 37.4853 60.8106 37.2957 60.7149 37.0732C60.6209 36.8485 60.5621 36.6007 60.5384 36.3297C60.5166 36.0807 60.5229 35.8432 60.5574 35.6174C60.5936 35.3893 60.6534 35.1773 60.7366 34.9813C60.8197 34.7833 60.9243 34.6025 61.0505 34.4389C61.1788 34.2751 61.324 34.1339 61.4863 34.0153C61.6504 33.8946 61.8286 33.7977 62.021 33.7246C62.2132 33.6496 62.4169 33.6026 62.632 33.5838C62.7914 33.5699 62.9382 33.5721 63.0723 33.5905C63.2064 33.6089 63.3296 33.6402 63.4419 33.6846C63.554 33.727 63.6552 33.7824 63.7455 33.8508C63.8377 33.917 63.9205 33.9921 63.9941 34.076L63.7234 34.458C63.7037 34.4858 63.6798 34.511 63.6517 34.5336C63.6255 34.5559 63.5896 34.5691 63.5437 34.5731C63.4979 34.5771 63.4536 34.5639 63.4108 34.5336C63.3678 34.5012 63.3157 34.4676 63.2544 34.4328C63.193 34.396 63.1149 34.3647 63.0203 34.3388C62.9255 34.311 62.8034 34.3036 62.654 34.3167C62.4567 34.3339 62.277 34.3908 62.1148 34.4873C61.9526 34.5838 61.8154 34.7133 61.7031 34.8757C61.5926 35.0359 61.511 35.2268 61.4581 35.4482C61.4072 35.6695 61.3934 35.9136 61.4167 36.1806C61.4338 36.3759 61.473 36.5481 61.5342 36.6973C61.5953 36.8446 61.6734 36.9682 61.7684 37.0683C61.8634 37.1664 61.971 37.2383 62.0915 37.284C62.2119 37.3297 62.3409 37.3465 62.4783 37.3345ZM65.2519 37.7724L64.3822 37.8485L64.5318 33.4658L65.4015 33.3897L65.2519 37.7724ZM68.2917 35.8532L67.9147 34.5039C67.8945 34.4334 67.8711 34.3501 67.8446 34.2541C67.8182 34.158 67.792 34.0539 67.7661 33.9417C67.7322 34.0591 67.6986 34.1685 67.6653 34.2697C67.632 34.371 67.6027 34.4599 67.5772 34.5364L67.1082 35.9567L68.2917 35.8532ZM69.6367 37.3888L68.9672 37.4474C68.8915 37.454 68.8312 37.4412 68.7862 37.409C68.7412 37.3768 68.7082 37.3325 68.6872 37.2761L68.4548 36.4442L66.9038 36.5799L66.6132 37.4576C66.5918 37.5116 66.556 37.561 66.5056 37.6055C66.4552 37.6481 66.3951 37.6724 66.3253 37.6785L65.6439 37.7381L67.3506 33.2192L68.2352 33.1418L69.6367 37.3888ZM72.4456 36.4354L72.4204 37.1453L70.0325 37.3542L70.1881 32.9709L71.0518 32.8954L70.9214 36.5687L72.4456 36.4354ZM78.009 34.1839C78.0297 34.421 78.0227 34.6505 77.9879 34.8724C77.9529 35.0923 77.8937 35.2992 77.8103 35.4932C77.7289 35.687 77.624 35.8649 77.4956 36.0267C77.3672 36.1885 77.2201 36.3308 77.0542 36.4538C76.8901 36.5745 76.7079 36.6728 76.5078 36.7485C76.3096 36.8241 76.0979 36.8717 75.8728 36.8914C75.5919 36.916 75.3356 36.8892 75.1039 36.8111C74.872 36.731 74.6709 36.6121 74.5005 36.4543C74.3299 36.2946 74.1925 36.1008 74.0883 35.8731C73.984 35.6453 73.9199 35.3949 73.8961 35.1219C73.8753 34.8848 73.8824 34.6564 73.9174 34.4365C73.9522 34.2146 74.0103 34.0067 74.0917 33.8129C74.1751 33.6189 74.281 33.441 74.4094 33.2792C74.5376 33.1154 74.6838 32.9731 74.8479 32.8524C75.0138 32.7294 75.1958 32.6302 75.394 32.5546C75.5942 32.4789 75.8068 32.4312 76.032 32.4115C76.3129 32.3869 76.5693 32.4147 76.8011 32.4948C77.033 32.5748 77.2342 32.6948 77.4048 32.8545C77.5754 33.0143 77.7128 33.208 77.817 33.4358C77.9213 33.6636 77.9853 33.9129 78.009 34.1839ZM77.1232 34.2825C77.1068 34.0952 77.069 33.9269 77.0097 33.7775C76.9503 33.6261 76.8711 33.5005 76.772 33.4007C76.6747 33.2988 76.5597 33.2236 76.427 33.1749C76.2963 33.1262 76.1502 33.1088 75.9888 33.1229C75.7796 33.1412 75.5941 33.2006 75.4322 33.3011C75.2723 33.4014 75.1394 33.5345 75.0335 33.7004C74.9295 33.8661 74.8553 34.0613 74.8107 34.286C74.7661 34.5108 74.7555 34.7566 74.7789 35.0236C74.7954 35.2129 74.8333 35.3822 74.8926 35.5317C74.9516 35.6791 75.0288 35.8038 75.1241 35.9059C75.2213 36.0078 75.3353 36.0832 75.4661 36.132C75.5986 36.1786 75.7456 36.1948 75.907 36.1807C76.1162 36.1624 76.3018 36.104 76.4638 36.0055C76.6257 35.905 76.7586 35.7719 76.8626 35.6062C76.9685 35.4404 77.0439 35.2461 77.0886 35.0233C77.1352 34.7984 77.1467 34.5515 77.1232 34.2825ZM79.5672 32.834L79.5231 34.0846L80.9367 33.9609L80.9034 34.6474L79.4987 34.7703L79.436 36.5315L78.5663 36.6076L78.7219 32.2243L81.2741 32.001L81.2468 32.687L79.5672 32.834ZM82.7426 32.5562L82.6984 33.8068L84.112 33.6831L84.0788 34.3696L82.6741 34.4925L82.6114 36.2537L81.7417 36.3297L81.8973 31.9465L84.4495 31.7232L84.4222 32.4092L82.7426 32.5562ZM85.918 32.2783L85.8779 33.4382L87.1839 33.324L87.1545 33.9861L85.8545 34.0998L85.8111 35.2901L87.4996 35.1424L87.4753 35.8281L84.9171 36.0519L85.0726 31.6687L87.6249 31.4454L87.5976 32.1314L85.918 32.2783ZM89.4677 33.3621C89.6172 33.349 89.7428 33.3159 89.8445 33.2629C89.9463 33.2098 90.0277 33.1424 90.0889 33.0608C90.15 32.9792 90.192 32.8861 90.215 32.7817C90.238 32.6773 90.2445 32.5684 90.2346 32.4548C90.2191 32.2775 90.1521 32.1428 90.0336 32.0508C89.9171 31.9586 89.7453 31.9224 89.5182 31.9423L89.1147 31.9776L89.0643 33.3974L89.4677 33.3621ZM89.5414 31.2777C89.7984 31.2553 90.02 31.264 90.2062 31.3039C90.3942 31.3417 90.5502 31.4043 90.6743 31.4918C90.8003 31.5772 90.896 31.6852 90.9617 31.816C91.0291 31.9446 91.0698 32.0876 91.0835 32.245C91.0978 32.4084 91.0884 32.5648 91.0553 32.7143C91.0242 32.8635 90.9711 33.0017 90.8958 33.1287C90.8206 33.2558 90.7253 33.3705 90.6098 33.473C90.4962 33.5753 90.3632 33.6612 90.2107 33.7307C90.2651 33.7561 90.3152 33.7889 90.3608 33.829C90.4085 33.869 90.451 33.9185 90.4883 33.9775L91.3344 35.4905L90.5543 35.5587C90.4049 35.5718 90.3024 35.5246 90.2468 35.417L89.5698 34.1151C89.5413 34.0653 89.5081 34.0301 89.4702 34.0093C89.4322 33.9886 89.3774 33.9813 89.3056 33.9876L89.0427 34.0106L88.9823 35.6963L88.1216 35.7716L88.2712 31.3889L89.5414 31.2777Z" fill="white"/>
<defs>
<filter id="filter0_d_2_170" x="31.5191" y="37.6886" width="68.302" height="29.2995" filterUnits="userSpaceOnUse" color-interpolation-filters="sRGB">
<feFlood flood-opacity="0" result="BackgroundImageFix"/>
<feColorMatrix in="SourceAlpha" type="matrix" values="0 0 0 0 0 0 0 0 0 0 0 0 0 0 0 0 0 0 127 0" result="hardAlpha"/>
<feOffset dy="2.25385"/>
<feGaussianBlur stdDeviation="1.69039"/>
<feComposite in2="hardAlpha" operator="out"/>
<feColorMatrix type="matrix" values="0 0 0 0 0 0 0 0 0 0 0 0 0 0 0 0 0 0 0.15 0"/>
<feBlend mode="normal" in2="BackgroundImageFix" result="effect1_dropShadow_2_170"/>
<feBlend mode="normal" in="SourceGraphic" in2="effect1_dropShadow_2_170" result="shape"/>
</filter>
<filter id="filter1_d_2_170" x="27.3571" y="57.8045" width="66.934" height="29.4605" filterUnits="userSpaceOnUse" color-interpolation-filters="sRGB">
<feFlood flood-opacity="0" result="BackgroundImageFix"/>
<feColorMatrix in="SourceAlpha" type="matrix" values="0 0 0 0 0 0 0 0 0 0 0 0 0 0 0 0 0 0 127 0" result="hardAlpha"/>
<feOffset dy="2.25385"/>
<feGaussianBlur stdDeviation="1.69039"/>
<feComposite in2="hardAlpha" operator="out"/>
<feColorMatrix type="matrix" values="0 0 0 0 0 0 0 0 0 0 0 0 0 0 0 0 0 0 0.15 0"/>
<feBlend mode="normal" in2="BackgroundImageFix" result="effect1_dropShadow_2_170"/>
<feBlend mode="normal" in="SourceGraphic" in2="effect1_dropShadow_2_170" result="shape"/>
</filter>
<filter id="filter2_d_2_170" x="49.9713" y="43.1353" width="35.6318" height="13.8821" filterUnits="userSpaceOnUse" color-interpolation-filters="sRGB">
<feFlood flood-opacity="0" result="BackgroundImageFix"/>
<feColorMatrix in="SourceAlpha" type="matrix" values="0 0 0 0 0 0 0 0 0 0 0 0 0 0 0 0 0 0 127 0" result="hardAlpha"/>
<feOffset dy="0.563463"/>
<feGaussianBlur stdDeviation="0.563463"/>
<feComposite in2="hardAlpha" operator="out"/>
<feColorMatrix type="matrix" values="0 0 0 0 0 0 0 0 0 0 0 0 0 0 0 0 0 0 0.15 0"/>
<feBlend mode="normal" in2="BackgroundImageFix" result="effect1_dropShadow_2_170"/>
<feBlend mode="normal" in="SourceGraphic" in2="effect1_dropShadow_2_170" result="shape"/>
</filter>
<filter id="filter3_d_2_170" x="49.5152" y="63.4443" width="29.3603" height="13.1512" filterUnits="userSpaceOnUse" color-interpolation-filters="sRGB">
<feFlood flood-opacity="0" result="BackgroundImageFix"/>
<feColorMatrix in="SourceAlpha" type="matrix" values="0 0 0 0 0 0 0 0 0 0 0 0 0 0 0 0 0 0 127 0" result="hardAlpha"/>
<feOffset dy="0.563463"/>
<feGaussianBlur stdDeviation="0.563463"/>
<feComposite in2="hardAlpha" operator="out"/>
<feColorMatrix type="matrix" values="0 0 0 0 0 0 0 0 0 0 0 0 0 0 0 0 0 0 0.15 0"/>
<feBlend mode="normal" in2="BackgroundImageFix" result="effect1_dropShadow_2_170"/>
<feBlend mode="normal" in="SourceGraphic" in2="effect1_dropShadow_2_170" result="shape"/>
</filter>
</defs>
</svg>
